<svg width="18" height="20" viewBox="0 0 18 20" fill="none" xmlns="http://www.w3.org/2000/svg">
<path d="M6.79642 17.5003C7.38403 18.019 8.15591 18.3337 9.00128 18.3337C9.84665 18.3337 10.6185 18.019 11.2061 17.5003M14.0013 6.66699C14.0013 5.34091 13.4745 4.06914 12.5368 3.13146C11.5991 2.19378 10.3274 1.66699 9.00128 1.66699C7.6752 1.66699 6.40343 2.19378 5.46574 3.13146C4.52806 4.06914 4.00128 5.34091 4.00128 6.66699C4.00128 9.24215 3.35167 11.0053 2.626 12.1715C2.01388 13.1552 1.70783 13.6471 1.71905 13.7843C1.73147 13.9362 1.76366 13.9942 1.88609 14.085C1.99666 14.167 2.4951 14.167 3.49199 14.167H14.5106C15.5075 14.167 16.0059 14.167 16.1165 14.085C16.2389 13.9942 16.2711 13.9362 16.2835 13.7843C16.2947 13.6471 15.9887 13.1552 15.3766 12.1715C14.6509 11.0053 14.0013 9.24215 14.0013 6.66699Z" stroke="#667085" stroke-width="1.66667" stroke-linecap="round" stroke-linejoin="round"/>
</svg>
