<svg width="18" height="18" viewBox="0 0 18 18" fill="none" xmlns="http://www.w3.org/2000/svg">
<path d="M17.7855 9.57338C17.6434 9.43086 17.4743 9.35954 17.2793 9.35954H14.7594V6.05217L16.7057 4.10594C16.8481 3.9635 16.9196 3.79474 16.9196 3.59962C16.9196 3.4047 16.8481 3.23598 16.7057 3.09342C16.5633 2.95094 16.3945 2.8797 16.1995 2.8797C16.0045 2.8797 15.8357 2.95098 15.6933 3.09342L13.747 5.03965H4.2524L2.30617 3.09342C2.16365 2.95094 1.99497 2.8797 1.79997 2.8797C1.60485 2.8797 1.43617 2.95098 1.29365 3.09342C1.15113 3.23594 1.07993 3.4047 1.07993 3.59962C1.07993 3.79474 1.15113 3.9635 1.29365 4.10594L3.23988 6.05217V9.35954H0.719995C0.524994 9.35954 0.356274 9.43086 0.213796 9.57338C0.0712785 9.71578 0 9.88473 0 10.0796C0 10.2746 0.0712785 10.4435 0.213796 10.5858C0.356274 10.7283 0.524994 10.7998 0.719995 10.7998H3.23988C3.23988 11.9995 3.45746 13.0272 3.89238 13.882L1.62006 16.4356C1.49251 16.5857 1.4344 16.7601 1.4457 16.9587C1.45689 17.1571 1.53377 17.3241 1.67629 17.4592C1.8188 17.5792 1.97996 17.6393 2.15995 17.6393C2.36996 17.6393 2.54991 17.5609 2.69999 17.4031L4.7586 15.0744L4.92743 15.2321C5.0324 15.3298 5.19541 15.4513 5.41677 15.5975C5.63809 15.7437 5.88554 15.89 6.15918 16.0366C6.43303 16.1828 6.75928 16.3066 7.13793 16.4077C7.51675 16.5091 7.89733 16.5598 8.27981 16.5598V6.48007H9.71984V16.5598C10.0797 16.5598 10.4434 16.511 10.8108 16.4133C11.1783 16.316 11.486 16.2072 11.7335 16.0871C11.9808 15.967 12.2249 15.8303 12.4646 15.6766C12.7047 15.5229 12.8622 15.416 12.9371 15.3559C13.0123 15.2958 13.0684 15.2471 13.1059 15.2097L15.3335 17.4258C15.4687 17.5683 15.6371 17.6395 15.8397 17.6395C16.0422 17.6395 16.2109 17.5683 16.3461 17.4258C16.4883 17.2833 16.5597 17.1145 16.5597 16.9195C16.5597 16.7245 16.4883 16.5557 16.3461 16.4133L14.0061 14.0622C14.5087 13.1697 14.7599 12.0822 14.7599 10.7998H17.2798C17.4748 10.7998 17.6437 10.7285 17.786 10.586C17.9284 10.4436 18 10.2748 18 10.0798C18 9.88485 17.9284 9.71593 17.7855 9.57338Z" fill="#6B7280"/>
<path d="M11.548 1.05188C10.8469 0.350718 9.99747 0 9.00001 0C8.00239 0 7.15323 0.350718 6.45195 1.05188C5.75079 1.75312 5.40027 2.60247 5.40027 3.5999H12.5997C12.5997 2.60263 12.2492 1.75312 11.548 1.05188Z" fill="#6B7280"/>
</svg>
