<svg width="21" height="18" viewBox="0 0 21 18" fill="none" xmlns="http://www.w3.org/2000/svg">
<path fill-rule="evenodd" clip-rule="evenodd" d="M3.30039 3.00156C1.97491 3.00156 0.900391 4.07608 0.900391 5.40156V15.0016C0.900391 16.327 1.97491 17.4016 3.30039 17.4016H17.7004C19.0259 17.4016 20.1004 16.327 20.1004 15.0016V5.40156C20.1004 4.07608 19.0259 3.00156 17.7004 3.00156H15.7974C15.4792 3.00156 15.174 2.87513 14.9489 2.65009L13.6033 1.30451C13.1532 0.854419 12.5428 0.601562 11.9063 0.601562H9.0945C8.45798 0.601562 7.84754 0.854418 7.39745 1.30451L6.05186 2.65009C5.82682 2.87513 5.52159 3.00156 5.20333 3.00156H3.30039ZM10.5004 13.8016C12.4886 13.8016 14.1004 12.1898 14.1004 10.2016C14.1004 8.21334 12.4886 6.60156 10.5004 6.60156C8.51217 6.60156 6.90039 8.21334 6.90039 10.2016C6.90039 12.1898 8.51217 13.8016 10.5004 13.8016Z" fill="white"/>
</svg>
