<svg width="24" height="24" viewBox="0 0 24 24" fill="none" xmlns="http://www.w3.org/2000/svg">
<path fill-rule="evenodd" clip-rule="evenodd" d="M4.80039 5.99961C3.47491 5.99961 2.40039 7.07413 2.40039 8.39961V17.9996C2.40039 19.3251 3.47491 20.3996 4.80039 20.3996H19.2004C20.5259 20.3996 21.6004 19.3251 21.6004 17.9996V8.39961C21.6004 7.07413 20.5259 5.99961 19.2004 5.99961H17.2974C16.9792 5.99961 16.674 5.87318 16.4489 5.64814L15.1033 4.30255C14.6532 3.85247 14.0428 3.59961 13.4063 3.59961H10.5945C9.95798 3.59961 9.34754 3.85246 8.89745 4.30255L7.55186 5.64814C7.32682 5.87318 7.02159 5.99961 6.70333 5.99961H4.80039ZM12.0004 16.7996C13.9886 16.7996 15.6004 15.1878 15.6004 13.1996C15.6004 11.2114 13.9886 9.59961 12.0004 9.59961C10.0122 9.59961 8.40039 11.2114 8.40039 13.1996C8.40039 15.1878 10.0122 16.7996 12.0004 16.7996Z" fill="#D1D5DB"/>
</svg>
