<svg width="20" height="20" viewBox="0 0 20 20" fill="none" xmlns="http://www.w3.org/2000/svg">
<path d="M9.9974 18.3337C14.5998 18.3337 18.3307 14.6027 18.3307 10.0003C18.3307 5.39795 14.5998 1.66699 9.9974 1.66699C5.39502 1.66699 1.66406 5.39795 1.66406 10.0003C1.66406 14.6027 5.39502 18.3337 9.9974 18.3337Z" stroke="#475467" stroke-width="1.66667" stroke-linecap="round" stroke-linejoin="round"/>
<path d="M12.2658 6.88863C12.6729 6.75292 12.8765 6.68507 13.0119 6.73334C13.1297 6.77535 13.2224 6.86805 13.2644 6.98585C13.3127 7.12122 13.2448 7.32478 13.1091 7.7319L11.8695 11.4508C11.8308 11.5667 11.8115 11.6247 11.7786 11.6728C11.7494 11.7155 11.7125 11.7523 11.6699 11.7815C11.6218 11.8144 11.5638 11.8338 11.4478 11.8724L7.72897 13.112C7.32185 13.2477 7.11829 13.3156 6.98292 13.2673C6.86512 13.2253 6.77242 13.1326 6.73041 13.0148C6.68214 12.8794 6.74999 12.6759 6.8857 12.2687L8.12532 8.54989C8.16397 8.43394 8.1833 8.37596 8.21623 8.32782C8.2454 8.28517 8.28224 8.24833 8.32489 8.21916C8.37303 8.18622 8.43101 8.1669 8.54696 8.12825L12.2658 6.88863Z" stroke="#475467" stroke-width="1.66667" stroke-linecap="round" stroke-linejoin="round"/>
</svg>
