<svg width="24" height="24" viewBox="0 0 24 24" fill="none" xmlns="http://www.w3.org/2000/svg">
<path d="M19.2335 16.3401C17.8888 16.3401 16.7662 17.266 16.4428 18.5102H12.7234C11.9255 18.5102 11.2766 17.8613 11.2766 17.0635V12.7234H16.4428C16.7662 13.9675 17.8888 14.8934 19.2335 14.8934C20.8293 14.8934 22.127 13.5957 22.127 12C22.127 10.4043 20.8293 9.10658 19.2335 9.10658C17.8888 9.10658 16.7662 10.0325 16.4428 11.2766H11.2766V6.93652C11.2766 5.3408 9.97895 4.04311 8.38323 4.04311H7.55716C7.23382 2.79894 6.11118 1.87305 4.76646 1.87305C3.17074 1.87305 1.87305 3.17074 1.87305 4.76646C1.87305 6.36218 3.17074 7.65988 4.76646 7.65988C6.11118 7.65988 7.23382 6.73398 7.55716 5.48982H8.38323C9.18109 5.48982 9.82994 6.13866 9.82994 6.93652V17.0635C9.82994 18.6592 11.1276 19.9569 12.7234 19.9569H16.4428C16.7662 21.2011 17.8888 22.127 19.2335 22.127C20.8293 22.127 22.127 20.8293 22.127 19.2335C22.127 17.6378 20.8293 16.3401 19.2335 16.3401ZM19.2335 10.5533C20.0314 10.5533 20.6802 11.2021 20.6802 12C20.6802 12.7979 20.0314 13.4467 19.2335 13.4467C18.4357 13.4467 17.7868 12.7979 17.7868 12C17.7868 11.2021 18.4357 10.5533 19.2335 10.5533ZM4.76646 6.21317C3.9686 6.21317 3.31975 5.56432 3.31975 4.76646C3.31975 3.9686 3.9686 3.31975 4.76646 3.31975C5.56432 3.31975 6.21317 3.9686 6.21317 4.76646C6.21317 5.56432 5.56432 6.21317 4.76646 6.21317ZM19.2335 20.6802C18.4357 20.6802 17.7868 20.0314 17.7868 19.2335C17.7868 18.4357 18.4357 17.7868 19.2335 17.7868C20.0314 17.7868 20.6802 18.4357 20.6802 19.2335C20.6802 20.0314 20.0314 20.6802 19.2335 20.6802Z" fill="#6B7280" stroke="#6B7280"/>
</svg>
