<svg width="20" height="17" viewBox="0 0 20 17" fill="none" xmlns="http://www.w3.org/2000/svg">
<path d="M18.0098 3.08192L11.1557 14.9208C10.7769 15.5751 10.5875 15.9022 10.3404 16.0121C10.1249 16.1079 9.8788 16.1079 9.66325 16.0121C9.41614 15.9022 9.22674 15.5751 8.84793 14.9208L1.99386 3.08192C1.61369 2.42526 1.4236 2.09693 1.4517 1.82746C1.4762 1.59242 1.59934 1.37884 1.79047 1.23987C2.0096 1.08054 2.38899 1.08054 3.14776 1.08054L16.8559 1.08054C17.6147 1.08054 17.9941 1.08054 18.2132 1.23987C18.4043 1.37884 18.5275 1.59242 18.552 1.82746C18.5801 2.09693 18.39 2.42526 18.0098 3.08192Z" stroke="#475467" stroke-width="1.66667" stroke-linecap="round" stroke-linejoin="round"/>
</svg>
