<svg width="19" height="19" viewBox="0 0 19 19" fill="none" xmlns="http://www.w3.org/2000/svg">
<path d="M1.08594 17.9166L5.71033 16.138C6.00611 16.0242 6.154 15.9673 6.29237 15.8931C6.41527 15.8271 6.53244 15.751 6.64264 15.6654C6.7667 15.5692 6.87875 15.4571 7.10284 15.233L16.5026 5.83326C17.4231 4.91279 17.4231 3.4204 16.5026 2.49993C15.5822 1.57945 14.0898 1.57945 13.1693 2.49992L3.76951 11.8997C3.54542 12.1238 3.43337 12.2358 3.3371 12.3599C3.25158 12.4701 3.17544 12.5873 3.10947 12.7102C3.03519 12.8485 2.97831 12.9964 2.86455 13.2922L1.08594 17.9166ZM1.08594 17.9166L2.80104 13.4574C2.92377 13.1383 2.98513 12.9787 3.09039 12.9057C3.18237 12.8418 3.29619 12.8176 3.40618 12.8386C3.53205 12.8627 3.65292 12.9836 3.89467 13.2253L5.77725 15.1079C6.019 15.3496 6.13987 15.4705 6.16391 15.5964C6.18491 15.7064 6.16076 15.8202 6.09689 15.9122C6.02381 16.0174 5.86426 16.0788 5.54516 16.2015L1.08594 17.9166Z" stroke="#475467" stroke-width="1.66667" stroke-linecap="round" stroke-linejoin="round"/>
</svg>
