<svg width="20" height="20" viewBox="0 0 20 20" fill="none" xmlns="http://www.w3.org/2000/svg">
<path fill-rule="evenodd" clip-rule="evenodd" d="M7.40002 0.150025L7.36303 0.150025C6.27429 0.150017 5.40534 0.150011 4.70362 0.207344C3.98404 0.266136 3.36579 0.389426 2.79817 0.678643C1.88558 1.14363 1.14363 1.88558 0.678643 2.79817C0.389426 3.36579 0.266136 3.98404 0.207344 4.70362C0.150011 5.40534 0.150017 6.27429 0.150025 7.36303L0.150025 7.40002V12.6L0.150025 12.637C0.150017 13.7258 0.150011 14.5947 0.207344 15.2964C0.266136 16.016 0.389426 16.6343 0.678643 17.2019C1.14363 18.1145 1.88558 18.8564 2.79817 19.3214C3.36579 19.6106 3.98404 19.7339 4.70362 19.7927C5.40535 19.85 6.27432 19.85 7.3631 19.85H7.40002H12.6H12.637C13.7257 19.85 14.5947 19.85 15.2964 19.7927C16.016 19.7339 16.6343 19.6106 17.2019 19.3214C18.1145 18.8564 18.8564 18.1145 19.3214 17.2019C19.6106 16.6343 19.7339 16.016 19.7927 15.2964C19.85 14.5947 19.85 13.7257 19.85 12.637V12.6V10C19.85 9.53058 19.4695 9.15002 19 9.15002C18.5306 9.15002 18.15 9.53058 18.15 10V12.6C18.15 13.7342 18.1494 14.5336 18.0984 15.158C18.0481 15.7724 17.9535 16.1421 17.8067 16.4301C17.5047 17.0228 17.0228 17.5047 16.4301 17.8067C16.1421 17.9535 15.7724 18.0481 15.158 18.0984C14.5336 18.1494 13.7342 18.15 12.6 18.15H7.40002C6.26589 18.15 5.46642 18.1494 4.84205 18.0984C4.22761 18.0481 3.85798 17.9535 3.56995 17.8067C2.97724 17.5047 2.49536 17.0228 2.19335 16.4301C2.0466 16.1421 1.9519 15.7724 1.9017 15.158C1.85069 14.5336 1.85002 13.7342 1.85002 12.6V7.40002C1.85002 6.26589 1.85069 5.46642 1.9017 4.84205C1.9519 4.22761 2.0466 3.85798 2.19335 3.56995C2.49536 2.97724 2.97724 2.49536 3.56995 2.19335C3.85798 2.0466 4.22761 1.9519 4.84205 1.9017C5.46642 1.85069 6.26589 1.85002 7.40002 1.85002H10C10.4695 1.85002 10.85 1.46947 10.85 1.00002C10.85 0.530583 10.4695 0.150025 10 0.150025H7.40002ZM13.85 4.00002C13.85 2.81261 14.8126 1.85002 16 1.85002C17.1874 1.85002 18.15 2.81261 18.15 4.00002C18.15 5.18744 17.1874 6.15002 16 6.15002C14.8126 6.15002 13.85 5.18744 13.85 4.00002ZM16 0.150025C13.8737 0.150025 12.15 1.87373 12.15 4.00002C12.15 6.12632 13.8737 7.85002 16 7.85002C18.1263 7.85002 19.85 6.12632 19.85 4.00002C19.85 1.87373 18.1263 0.150025 16 0.150025Z" fill="#1F2937"/>
</svg>
