<svg width="19" height="18" viewBox="0 0 19 18" fill="none" xmlns="http://www.w3.org/2000/svg">
<path d="M5.875 10L0.875 15L6.5 16.875L9.625 13.75M13.375 12.5L11.3172 14.5578C11.2591 14.6159 11.1902 14.662 11.1143 14.6935C11.0385 14.7249 10.9571 14.7411 10.875 14.7411C10.7929 14.7411 10.7115 14.7249 10.6357 14.6935C10.5598 14.662 10.4909 14.6159 10.4328 14.5578L5.06719 9.19219C5.00908 9.13414 4.96298 9.06521 4.93153 8.98934C4.90007 8.91346 4.88388 8.83213 4.88388 8.75C4.88388 8.66787 4.90007 8.58654 4.93153 8.51066C4.96298 8.43479 5.00908 8.36586 5.06719 8.30781L7.125 6.25M18.375 8.75L14.4422 12.6828C14.3841 12.7409 14.3152 12.787 14.2393 12.8185C14.1635 12.8499 14.0821 12.8661 14 12.8661C13.9179 12.8661 13.8365 12.8499 13.7607 12.8185C13.6848 12.787 13.6159 12.7409 13.5578 12.6828L6.94219 6.06719C6.88408 6.00914 6.83798 5.94021 6.80652 5.86434C6.77507 5.78846 6.75888 5.70713 6.75888 5.625C6.75888 5.54287 6.77507 5.46154 6.80652 5.38566C6.83798 5.30979 6.88408 5.24086 6.94219 5.18281L10.875 1.25" stroke="#475467" stroke-width="1.67" stroke-linecap="round" stroke-linejoin="round"/>
</svg>
