<svg width="24" height="24" viewBox="0 0 24 24" fill="none" xmlns="http://www.w3.org/2000/svg">
<path fill-rule="evenodd" clip-rule="evenodd" d="M4 2.25C3.0335 2.25 2.25 3.0335 2.25 4L2.25 6C2.25 6.9665 3.0335 7.75 4 7.75L6 7.75C6.9665 7.75 7.75 6.9665 7.75 6L7.75 4C7.75 3.0335 6.9665 2.25 6 2.25L4 2.25ZM3.75 4C3.75 3.86193 3.86193 3.75 4 3.75L6 3.75C6.13807 3.75 6.25 3.86193 6.25 4L6.25 6C6.25 6.13807 6.13807 6.25 6 6.25L4 6.25C3.86193 6.25 3.75 6.13807 3.75 6L3.75 4ZM10.25 5C10.25 4.58579 10.5858 4.25 11 4.25L21 4.25C21.4142 4.25 21.75 4.58579 21.75 5C21.75 5.41422 21.4142 5.75 21 5.75L11 5.75C10.5858 5.75 10.25 5.41422 10.25 5ZM11 11.25C10.5858 11.25 10.25 11.5858 10.25 12C10.25 12.4142 10.5858 12.75 11 12.75L21 12.75C21.4142 12.75 21.75 12.4142 21.75 12C21.75 11.5858 21.4142 11.25 21 11.25L11 11.25ZM11 18.25C10.5858 18.25 10.25 18.5858 10.25 19C10.25 19.4142 10.5858 19.75 11 19.75L21 19.75C21.4142 19.75 21.75 19.4142 21.75 19C21.75 18.5858 21.4142 18.25 21 18.25L11 18.25ZM2.25 11C2.25 10.0335 3.0335 9.25 4 9.25L6 9.25C6.9665 9.25 7.75 10.0335 7.75 11L7.75 13C7.75 13.9665 6.9665 14.75 6 14.75L4 14.75C3.0335 14.75 2.25 13.9665 2.25 13L2.25 11ZM4 10.75C3.86193 10.75 3.75 10.8619 3.75 11L3.75 13C3.75 13.1381 3.86193 13.25 4 13.25L6 13.25C6.13807 13.25 6.25 13.1381 6.25 13L6.25 11C6.25 10.8619 6.13807 10.75 6 10.75L4 10.75ZM4 16.25C3.0335 16.25 2.25 17.0335 2.25 18L2.25 20C2.25 20.9665 3.0335 21.75 4 21.75L6 21.75C6.9665 21.75 7.75 20.9665 7.75 20L7.75 18C7.75 17.0335 6.9665 16.25 6 16.25L4 16.25ZM3.75 18C3.75 17.8619 3.86193 17.75 4 17.75L6 17.75C6.13807 17.75 6.25 17.8619 6.25 18L6.25 20C6.25 20.1381 6.13807 20.25 6 20.25L4 20.25C3.86193 20.25 3.75 20.1381 3.75 20L3.75 18Z" fill="#9CA3AF"/>
</svg>
