<svg width="18" height="22" viewBox="0 0 18 22" fill="none" xmlns="http://www.w3.org/2000/svg">
<path d="M5.56562 3.79922C5.56562 1.81099 7.1774 0.199219 9.16562 0.199219C11.1538 0.199219 12.7656 1.81099 12.7656 3.79922V8.59922C12.7656 10.5874 11.1538 12.1992 9.16562 12.1992C7.1774 12.1992 5.56562 10.5874 5.56562 8.59922V3.79922Z" fill="white"/>
<path d="M10.3656 16.9142C14.4364 16.3319 17.5656 12.831 17.5656 8.59922C17.5656 7.93648 17.0284 7.39922 16.3656 7.39922C15.7029 7.39922 15.1656 7.93648 15.1656 8.59922C15.1656 11.9129 12.4793 14.5992 9.16562 14.5992C5.85192 14.5992 3.16562 11.9129 3.16562 8.59922C3.16562 7.93648 2.62837 7.39922 1.96562 7.39922C1.30288 7.39922 0.765625 7.93648 0.765625 8.59922C0.765625 12.831 3.89487 16.3319 7.96562 16.9142V19.3992H4.36562C3.70288 19.3992 3.16562 19.9365 3.16562 20.5992C3.16562 21.262 3.70288 21.7992 4.36562 21.7992H13.9656C14.6284 21.7992 15.1656 21.262 15.1656 20.5992C15.1656 19.9365 14.6284 19.3992 13.9656 19.3992H10.3656V16.9142Z" fill="white"/>
</svg>
