<svg width="24" height="24" viewBox="0 0 24 24" fill="none" xmlns="http://www.w3.org/2000/svg">
<path d="M8.39961 4.79922C8.39961 2.81099 10.0114 1.19922 11.9996 1.19922C13.9878 1.19922 15.5996 2.81099 15.5996 4.79922V9.59922C15.5996 11.5874 13.9878 13.1992 11.9996 13.1992C10.0114 13.1992 8.39961 11.5874 8.39961 9.59922V4.79922Z" fill="#6B7280"/>
<path d="M13.1996 17.9142C17.2704 17.3319 20.3996 13.831 20.3996 9.59922C20.3996 8.93648 19.8624 8.39922 19.1996 8.39922C18.5369 8.39922 17.9996 8.93648 17.9996 9.59922C17.9996 12.9129 15.3133 15.5992 11.9996 15.5992C8.6859 15.5992 5.99961 12.9129 5.99961 9.59922C5.99961 8.93648 5.46235 8.39922 4.79961 8.39922C4.13687 8.39922 3.59961 8.93648 3.59961 9.59922C3.59961 13.831 6.72886 17.3319 10.7996 17.9142V20.3992H7.19961C6.53687 20.3992 5.99961 20.9365 5.99961 21.5992C5.99961 22.262 6.53687 22.7992 7.19961 22.7992H16.7996C17.4624 22.7992 17.9996 22.262 17.9996 21.5992C17.9996 20.9365 17.4624 20.3992 16.7996 20.3992H13.1996V17.9142Z" fill="#6B7280"/>
</svg>
