<svg width="20" height="20" viewBox="0 0 20 20" fill="none" xmlns="http://www.w3.org/2000/svg">
<path fill-rule="evenodd" clip-rule="evenodd" d="M19.6003 9.99839C19.6003 15.3003 15.3022 19.5983 10.0003 19.5983C4.69844 19.5983 0.400391 15.3003 0.400391 9.99839C0.400391 4.69648 4.69844 0.398438 10.0003 0.398438C15.3022 0.398438 19.6003 4.69648 19.6003 9.99839ZM6.40036 7.5984C6.40036 6.93566 6.93762 6.39841 7.60035 6.39841C8.26309 6.39841 8.80035 6.93566 8.80035 7.5984V12.3984C8.80035 13.0611 8.26309 13.5984 7.60035 13.5984C6.93762 13.5984 6.40036 13.0611 6.40036 12.3984V7.5984ZM12.4003 6.39841C11.7376 6.39841 11.2003 6.93566 11.2003 7.5984V12.3984C11.2003 13.0611 11.7376 13.5984 12.4003 13.5984C13.0631 13.5984 13.6003 13.0611 13.6003 12.3984V7.5984C13.6003 6.93566 13.0631 6.39841 12.4003 6.39841Z" fill="white"/>
</svg>
