<svg width="20" height="20" viewBox="0 0 20 20" fill="none" xmlns="http://www.w3.org/2000/svg">
<path fill-rule="evenodd" clip-rule="evenodd" d="M19.6 10C19.6 15.3019 15.3019 19.6 10 19.6C4.6981 19.6 0.400055 15.3019 0.400055 10C0.400055 4.69809 4.6981 0.400047 10 0.400047C15.3019 0.400047 19.6 4.69809 19.6 10ZM6.40002 7.60001C6.40002 6.93727 6.93728 6.40002 7.60002 6.40002C8.26276 6.40002 8.80001 6.93727 8.80001 7.60001V12.4C8.80001 13.0627 8.26276 13.6 7.60002 13.6C6.93728 13.6 6.40002 13.0627 6.40002 12.4V7.60001ZM12.4 6.40002C11.7373 6.40002 11.2 6.93727 11.2 7.60001V12.4C11.2 13.0627 11.7373 13.6 12.4 13.6C13.0627 13.6 13.6 13.0627 13.6 12.4V7.60001C13.6 6.93727 13.0627 6.40002 12.4 6.40002Z" fill="#6B7280"/>
</svg>
