<svg width="15" height="20" viewBox="0 0 15 20" fill="none" xmlns="http://www.w3.org/2000/svg">
<path d="M5.79532 16.2224C5.79532 13.3906 5.75389 13.2752 4.55951 12.7805C1.62387 11.5645 0.257812 8.72265 0.257812 3.83153V0.410156H1.91795H3.57809L3.7283 4.06772C3.86757 7.459 3.96551 7.80013 5.07365 8.7533C6.72651 10.175 8.52682 10.0971 10.0877 8.5362C11.2583 7.36556 11.3328 7.08528 11.3328 3.85062V0.410156H13.0367H14.7405V4.0031C14.7405 5.97922 14.5366 8.13566 14.2875 8.79517C13.6955 10.362 11.9705 12.146 10.4309 12.7838C9.246 13.2746 9.20301 13.3949 9.20301 16.2224V19.1525H7.49917H5.79532V16.2224Z" fill="#6D28D9"/>
</svg>
