<svg width="18" height="20" viewBox="0 0 18 20" fill="none" xmlns="http://www.w3.org/2000/svg">
<path d="M6.83083 16.1429L7.31787 17.2383C7.46265 17.5644 7.69893 17.8414 7.99805 18.0358C8.29718 18.2303 8.64629 18.3337 9.00305 18.3337C9.35981 18.3337 9.70892 18.2303 10.008 18.0358C10.3072 17.8414 10.5435 17.5644 10.6882 17.2383L11.1753 16.1429C11.3486 15.7542 11.6403 15.4302 12.0086 15.217C12.3793 15.0032 12.808 14.9121 13.2336 14.9568L14.4253 15.0837C14.78 15.1212 15.138 15.055 15.4558 14.8931C15.7737 14.7312 16.0378 14.4806 16.216 14.1716C16.3945 13.8628 16.4795 13.5089 16.4608 13.1527C16.4421 12.7966 16.3204 12.4535 16.1105 12.1651L15.4049 11.1957C15.1537 10.8479 15.0194 10.4293 15.0216 10.0003C15.0215 9.57248 15.157 9.15562 15.4086 8.80959L16.1142 7.84014C16.3241 7.55179 16.4458 7.20872 16.4645 6.85255C16.4832 6.49639 16.3982 6.14244 16.2197 5.83366C16.0415 5.52469 15.7774 5.27407 15.4595 5.11218C15.1417 4.9503 14.7837 4.8841 14.429 4.92162L13.2373 5.04847C12.8118 5.09317 12.383 5.00209 12.0123 4.78829C11.6432 4.57387 11.3515 4.24812 11.179 3.85773L10.6882 2.76236C10.5435 2.4363 10.3072 2.15925 10.008 1.96482C9.70892 1.77039 9.35981 1.66693 9.00305 1.66699C8.64629 1.66693 8.29718 1.77039 7.99805 1.96482C7.69893 2.15925 7.46265 2.4363 7.31787 2.76236L6.83083 3.85773C6.65827 4.24812 6.36656 4.57387 5.9975 4.78829C5.62684 5.00209 5.19805 5.09317 4.7725 5.04847L3.57713 4.92162C3.2224 4.8841 2.86441 4.9503 2.54655 5.11218C2.2287 5.27407 1.96464 5.52469 1.78638 5.83366C1.6079 6.14244 1.52287 6.49639 1.54161 6.85255C1.56034 7.20872 1.68204 7.55179 1.89194 7.84014L2.5975 8.80959C2.84911 9.15562 2.98461 9.57248 2.98453 10.0003C2.98461 10.4282 2.84911 10.845 2.5975 11.1911L1.89194 12.1605C1.68204 12.4489 1.56034 12.7919 1.54161 13.1481C1.52287 13.5043 1.6079 13.8582 1.78638 14.167C1.96481 14.4758 2.22891 14.7263 2.54672 14.8882C2.86452 15.05 3.22243 15.1163 3.57713 15.079L4.76879 14.9522C5.19435 14.9075 5.62314 14.9986 5.99379 15.2124C6.36423 15.4262 6.6573 15.752 6.83083 16.1429Z" stroke="#667085" stroke-width="1.66667" stroke-linecap="round" stroke-linejoin="round"/>
<path d="M9.00156 12.5003C10.3823 12.5003 11.5016 11.381 11.5016 10.0003C11.5016 8.61961 10.3823 7.50033 9.00156 7.50033C7.62085 7.50033 6.50156 8.61961 6.50156 10.0003C6.50156 11.381 7.62085 12.5003 9.00156 12.5003Z" stroke="#667085" stroke-width="1.66667" stroke-linecap="round" stroke-linejoin="round"/>
</svg>
