<svg width="20" height="16" viewBox="0 0 20 16" fill="none" xmlns="http://www.w3.org/2000/svg">
<path d="M14.3359 1.33301C15.7361 1.33301 16.4361 1.33301 16.9709 1.60549C17.4413 1.84517 17.8238 2.22763 18.0635 2.69803C18.3359 3.23281 18.3359 3.93288 18.3359 5.33301L18.3359 10.6663C18.3359 12.0665 18.3359 12.7665 18.0635 13.3013C17.8238 13.7717 17.4413 14.1542 16.9709 14.3939C16.4361 14.6663 15.7361 14.6663 14.3359 14.6663L5.66927 14.6663C4.26914 14.6663 3.56907 14.6663 3.03429 14.3939C2.56389 14.1542 2.18144 13.7717 1.94175 13.3013C1.66927 12.7665 1.66927 12.0665 1.66927 10.6663L1.66927 5.33301C1.66927 3.93288 1.66927 3.23281 1.94175 2.69803C2.18144 2.22763 2.56389 1.84517 3.03429 1.60549C3.56907 1.33301 4.26914 1.33301 5.66927 1.33301L14.3359 1.33301Z" stroke="#475467" stroke-width="1.66667" stroke-linecap="round" stroke-linejoin="round"/>
</svg>
