<svg width="20" height="20" viewBox="0 0 20 20" fill="none" xmlns="http://www.w3.org/2000/svg">
<path d="M8.33057 10.834C8.68845 11.3124 9.14503 11.7083 9.66936 11.9947C10.1937 12.2812 10.7735 12.4516 11.3694 12.4942C11.9654 12.5369 12.5636 12.4509 13.1234 12.2421C13.6832 12.0333 14.1915 11.7065 14.6139 11.284L17.1139 8.78396C17.8729 7.99811 18.2929 6.9456 18.2834 5.85312C18.2739 4.76063 17.8357 3.71558 17.0631 2.94304C16.2906 2.17051 15.2456 1.73231 14.1531 1.72281C13.0606 1.71332 12.0081 2.1333 11.2222 2.89229L9.7889 4.31729M11.6639 9.16729C11.306 8.68885 10.8494 8.29297 10.3251 8.00651C9.80078 7.72004 9.22098 7.54969 8.62503 7.50701C8.02908 7.46433 7.43091 7.55032 6.87112 7.75914C6.31132 7.96796 5.80297 8.29473 5.38057 8.71729L2.88057 11.2173C2.12158 12.0031 1.7016 13.0556 1.7111 14.1481C1.72059 15.2406 2.15879 16.2857 2.93133 17.0582C3.70386 17.8307 4.74891 18.2689 5.8414 18.2784C6.93388 18.2879 7.98639 17.8679 8.77224 17.109L10.1972 15.684" stroke="#667085" stroke-width="1.67" stroke-linecap="round" stroke-linejoin="round"/>
</svg>
