<svg width="10" height="10" viewBox="0 0 10 10" fill="none" xmlns="http://www.w3.org/2000/svg">
<path d="M10 5C10 5.98891 9.70675 6.9556 9.15735 7.77785C8.60794 8.60009 7.82705 9.24096 6.91342 9.61939C5.99979 9.99783 4.99445 10.0969 4.02455 9.90392C3.05464 9.711 2.16373 9.2348 1.46447 8.53553C0.765206 7.83627 0.289002 6.94535 0.0960758 5.97545C-0.0968502 5.00554 0.00216643 4.00021 0.380604 3.08658C0.759043 2.17295 1.3999 1.39206 2.22215 0.842651C3.0444 0.293244 4.01109 0 5 0C6.32608 0 7.59785 0.526784 8.53553 1.46447C9.47322 2.40215 10 3.67392 10 5Z" fill="#475467"/>
</svg>
