<svg width="6" height="6" viewBox="0 0 6 6" fill="none" xmlns="http://www.w3.org/2000/svg">
<path d="M5.4375 3C5.4375 3.48209 5.29454 3.95336 5.02671 4.3542C4.75887 4.75505 4.37819 5.06747 3.93279 5.25195C3.4874 5.43644 2.9973 5.48471 2.52447 5.39066C2.05164 5.29661 1.61732 5.06446 1.27643 4.72357C0.935538 4.38268 0.703388 3.94836 0.609337 3.47553C0.515286 3.0027 0.563556 2.5126 0.748045 2.06721C0.932533 1.62181 1.24495 1.24113 1.6458 0.973293C2.04664 0.705457 2.51791 0.5625 3 0.5625C3.64647 0.5625 4.26645 0.819307 4.72357 1.27643C5.18069 1.73355 5.4375 2.35353 5.4375 3Z" fill="#475467" stroke="#475467" stroke-width="0.125"/>
</svg>
