<svg width="20" height="20" viewBox="0 0 20 20" fill="none" xmlns="http://www.w3.org/2000/svg">
<g clip-path="url(#clip0_19214_104458)">
<path d="M15.89 15.8919C14.3272 17.4547 12.2075 18.3327 9.9974 18.3327C7.78726 18.3327 5.66764 17.4547 4.10484 15.8919C2.54204 14.3291 1.66406 12.2095 1.66406 9.99935C1.66406 7.78921 2.54204 5.6696 4.10484 4.10679L9.9974 9.99935L15.89 15.8919Z" fill="#344054"/>
<path d="M9.9974 18.3327C14.5998 18.3327 18.3307 14.6017 18.3307 9.99935C18.3307 5.39698 14.5998 1.66602 9.9974 1.66602C5.39502 1.66602 1.66406 5.39698 1.66406 9.99935C1.66406 14.6017 5.39502 18.3327 9.9974 18.3327Z" stroke="#344054" stroke-width="1.66667" stroke-linecap="round" stroke-linejoin="round"/>
</g>
<defs>
<clipPath id="clip0_19214_104458">
<rect width="20" height="20" fill="white"/>
</clipPath>
</defs>
</svg>
