<svg width="20" height="17" viewBox="0 0 20 17" fill="none" xmlns="http://www.w3.org/2000/svg">
<path d="M1.99019 14.0821L8.84427 2.24329C9.22307 1.58899 9.41248 1.26184 9.65959 1.15196C9.87513 1.05612 10.1212 1.05612 10.3368 1.15196C10.5839 1.26184 10.7733 1.58899 11.1521 2.24329L18.0061 14.0821C18.3863 14.7388 18.5764 15.0671 18.5483 15.3366C18.5238 15.5716 18.4007 15.7852 18.2095 15.9242C17.9904 16.0835 17.611 16.0835 16.8522 16.0835H3.1441C2.38533 16.0835 2.00594 16.0835 1.78681 15.9242C1.59568 15.7852 1.47254 15.5716 1.44803 15.3366C1.41994 15.0671 1.61002 14.7388 1.99019 14.0821Z" stroke="#475467" stroke-width="1.66667" stroke-linecap="round" stroke-linejoin="round"/>
</svg>
