<svg width="22" height="20" viewBox="0 0 22 20" fill="none" xmlns="http://www.w3.org/2000/svg">
<path fill-rule="evenodd" clip-rule="evenodd" d="M8.85039 1.99844C8.85039 1.529 8.46983 1.14844 8.00039 1.14844C7.53095 1.14844 7.15039 1.529 7.15039 1.99844V3.79844C7.15039 4.37252 7.14973 4.75195 7.12597 5.04282C7.10301 5.32376 7.06281 5.44641 7.02505 5.52053C6.91479 5.73691 6.73887 5.91284 6.52248 6.02309C6.44837 6.06086 6.32571 6.10106 6.04477 6.12401C5.75391 6.14778 5.37447 6.14844 4.80039 6.14844H2.00039C1.53095 6.14844 1.15039 6.529 1.15039 6.99844C1.15039 7.46788 1.53095 7.84844 2.00039 7.84844H4.80039L4.83419 7.84844H4.83422H4.83422H4.83423C5.36547 7.84845 5.81485 7.84846 6.1832 7.81837C6.56927 7.78682 6.94055 7.71803 7.29426 7.53781C7.83053 7.26457 8.26652 6.82857 8.53976 6.29231C8.71998 5.9386 8.78878 5.56732 8.82032 5.18125C8.85042 4.8129 8.8504 4.36352 8.85039 3.83227V3.83227V3.83226V3.83223L8.85039 3.79844V1.99844ZM4.80039 13.8484C5.37447 13.8484 5.75391 13.8491 6.04477 13.8729C6.32571 13.8958 6.44837 13.936 6.52248 13.9738C6.73887 14.084 6.91479 14.26 7.02505 14.4763C7.06281 14.5505 7.10301 14.6731 7.12597 14.9541C7.14973 15.2449 7.15039 15.6244 7.15039 16.1984V17.9984C7.15039 18.4679 7.53095 18.8484 8.00039 18.8484C8.46983 18.8484 8.85039 18.4679 8.85039 17.9984V16.1984L8.85039 16.1646V16.1646C8.8504 15.6334 8.85042 15.184 8.82032 14.8156C8.78878 14.4296 8.71998 14.0583 8.53976 13.7046C8.26652 13.1683 7.83053 12.7323 7.29426 12.4591C6.94055 12.2788 6.56927 12.2101 6.1832 12.1785C5.81485 12.1484 5.36546 12.1484 4.8342 12.1484H4.83419H4.83418H4.83417H4.80039H2.00039C1.53095 12.1484 1.15039 12.529 1.15039 12.9984C1.15039 13.4679 1.53095 13.8484 2.00039 13.8484H4.80039ZM14.0004 1.14844C14.4698 1.14844 14.8504 1.529 14.8504 1.99844V3.79844C14.8504 4.37252 14.8511 4.75195 14.8748 5.04282C14.8978 5.32376 14.938 5.44641 14.9757 5.52053C15.086 5.73691 15.2619 5.91284 15.4783 6.02309C15.5524 6.06086 15.6751 6.10106 15.956 6.12401C16.2469 6.14778 16.6263 6.14844 17.2004 6.14844H20.0004C20.4698 6.14844 20.8504 6.529 20.8504 6.99844C20.8504 7.46788 20.4698 7.84844 20.0004 7.84844H17.2004L17.1666 7.84844H17.1666C16.6353 7.84845 16.1859 7.84846 15.8176 7.81837C15.4315 7.78682 15.0602 7.71803 14.7065 7.53781C14.1703 7.26457 13.7343 6.82857 13.461 6.29231C13.2808 5.9386 13.212 5.56732 13.1805 5.18125C13.1504 4.81289 13.1504 4.3635 13.1504 3.83224V3.83223V3.83222V3.79844V1.99844C13.1504 1.529 13.5309 1.14844 14.0004 1.14844ZM17.2004 12.1484H17.1666H17.1666C16.6353 12.1484 16.1859 12.1484 15.8176 12.1785C15.4315 12.2101 15.0602 12.2788 14.7065 12.4591C14.1703 12.7323 13.7343 13.1683 13.461 13.7046C13.2808 14.0583 13.212 14.4296 13.1805 14.8156C13.1504 15.184 13.1504 15.6334 13.1504 16.1646V16.1647V16.1984V17.9984C13.1504 18.4679 13.5309 18.8484 14.0004 18.8484C14.4698 18.8484 14.8504 18.4679 14.8504 17.9984V16.1984C14.8504 15.6244 14.8511 15.2449 14.8748 14.9541C14.8978 14.6731 14.938 14.5505 14.9757 14.4763C15.086 14.26 15.2619 14.084 15.4783 13.9738C15.5524 13.936 15.6751 13.8958 15.956 13.8729C16.2469 13.8491 16.6263 13.8484 17.2004 13.8484H20.0004C20.4698 13.8484 20.8504 13.4679 20.8504 12.9984C20.8504 12.529 20.4698 12.1484 20.0004 12.1484H17.2004Z" fill="#D1D5DB" stroke="#D1D5DB" stroke-linecap="round" stroke-linejoin="round"/>
</svg>
