<svg width="24" height="24" viewBox="0 0 24 24" fill="none" xmlns="http://www.w3.org/2000/svg">
<path d="M2.40039 7.20078C2.40039 5.8753 3.47491 4.80078 4.80039 4.80078H12.0004C13.3259 4.80078 14.4004 5.8753 14.4004 7.20078V16.8008C14.4004 18.1263 13.3259 19.2008 12.0004 19.2008H4.80039C3.47491 19.2008 2.40039 18.1263 2.40039 16.8008V7.20078Z" fill="#6B7280"/>
<path d="M17.4637 8.52747C17.0572 8.73074 16.8004 9.14626 16.8004 9.60078V14.4008C16.8004 14.8553 17.0572 15.2708 17.4637 15.4741L19.8637 16.6741C20.2357 16.8601 20.6775 16.8402 21.0313 16.6216C21.385 16.4029 21.6004 16.0167 21.6004 15.6008V8.40078C21.6004 7.98489 21.385 7.59865 21.0313 7.38C20.6775 7.16135 20.2357 7.14148 19.8637 7.32747L17.4637 8.52747Z" fill="#6B7280"/>
</svg>
