<svg width="20" height="16" viewBox="0 0 20 16" fill="none" xmlns="http://www.w3.org/2000/svg">
<path d="M0.734375 3.20078C0.734375 1.8753 1.80889 0.800781 3.13438 0.800781H10.3344C11.6599 0.800781 12.7344 1.8753 12.7344 3.20078V12.8008C12.7344 14.1263 11.6599 15.2008 10.3344 15.2008H3.13437C1.80889 15.2008 0.734375 14.1263 0.734375 12.8008V3.20078Z" fill="white"/>
<path d="M15.7977 4.52747C15.3912 4.73074 15.1344 5.14626 15.1344 5.60078V10.4008C15.1344 10.8553 15.3912 11.2708 15.7977 11.4741L18.1977 12.6741C18.5697 12.8601 19.0115 12.8402 19.3653 12.6216C19.719 12.4029 19.9344 12.0167 19.9344 11.6008V4.40078C19.9344 3.98489 19.719 3.59865 19.3653 3.38C19.0115 3.16135 18.5697 3.14148 18.1977 3.32747L15.7977 4.52747Z" fill="white"/>
</svg>
