<?xml version="1.0" encoding="UTF-8" standalone="no" ?>
<!DOCTYPE svg PUBLIC "-//W3C//DTD SVG 1.1//EN" "http://www.w3.org/Graphics/SVG/1.1/DTD/svg11.dtd">
<svg xmlns="http://www.w3.org/2000/svg" xmlns:xlink="http://www.w3.org/1999/xlink" version="1.1" width="700" height="700" viewBox="0 0 700 700" xml:space="preserve">
<desc>Created with Fabric.js 4.6.0</desc>
<defs>
</defs>
<g transform="matrix(1 0 0 1 367.24 391.33)" id="u4Fvc5W4dkLMExsVFaokd"  >
<path style="stroke: none; stroke-width: 1; stroke-dasharray: none; stroke-linecap: butt; stroke-dashoffset: 0; stroke-linejoin: miter; stroke-miterlimit: 4; fill: #D1D5DB; fill-rule: nonzero; opacity: 1;" vector-effect="non-scaling-stroke"  transform=" translate(-320, -256)" d="M 38.8 5.1 C 28.4 -3.1 13.3 -1.2 5.1 9.2 C -3.1000000000000014 19.599999999999998 -1.2 34.7 9.2 42.9 L 601.2 506.9 C 611.6 515.1 626.7 513.1999999999999 634.9000000000001 502.79999999999995 C 643.1000000000001 492.4 641.2 477.29999999999995 630.8000000000001 469.09999999999997 L 544.4000000000001 401.4 L 558.2 410.59999999999997 C 568 417.09999999999997 580.6 417.79999999999995 591.1 412.2 C 601.6 406.6 608 395.8 608 384 L 608 128 C 608 116.2 601.5 105.4 591.1 99.8 C 580.7 94.19999999999999 568.1 94.8 558.2 101.39999999999999 L 462.20000000000005 165.39999999999998 L 448 174.9 L 448 192 L 448 320 L 448 325.8 L 416 300.7 L 416 128 C 416 92.7 387.3 64 352 64 L 113.9 64 L 38.8 5.1 z M 32 128 L 32 384 C 32 419.3 60.7 448 96 448 L 352 448 C 375.4 448 395.9 435.4 407 416.7 L 32.3 121.5 C 32.099999999999994 123.6 31.999999999999996 125.8 31.999999999999996 128 z" stroke-linecap="round" />
</g>
</svg>