<svg width="120" height="42" viewBox="0 0 120 42" fill="none" xmlns="http://www.w3.org/2000/svg">
<path d="M47 16.7291H52.2756C53.3427 16.7291 54.1243 16.7919 54.6203 16.9174C55.1313 17.0429 55.8302 17.4742 56.717 18.2115C57.6188 18.9331 58.0697 20.4076 58.0697 22.635C58.0697 24.3135 57.5963 25.6625 56.6494 26.6821C55.7025 27.686 54.3798 28.188 52.6814 28.188H50.0211V32.4939H47V16.7291ZM50.0211 19.1762V25.7409H51.8698C53.9439 25.7409 54.981 24.6429 54.981 22.4468C54.981 20.2664 54.0191 19.1762 52.0952 19.1762H50.0211Z" fill="#0C2FF3"/>
<path d="M60.2982 16.7291H63.3193V28.188H60.2982V16.7291ZM61.6962 15.5527C60.9241 15.5527 60.2982 14.8679 60.2982 14.0233C60.2982 13.1786 60.9241 12.4939 61.6962 12.4939H61.9213C62.6934 12.4939 63.3193 13.1786 63.3193 14.0233C63.3193 14.8679 62.6934 15.5527 61.9213 15.5527H61.6962Z" fill="#0C2FF3"/>
<path d="M66.2868 16.7291H72.1035C73.6816 16.7291 74.8089 17.0664 75.4853 17.7409C76.1616 18.4154 76.4998 19.5448 76.4998 21.1291V28.188H73.4787V20.7762C73.4787 20.2115 73.3585 19.8037 73.118 19.5527C72.8775 19.3017 72.4792 19.1762 71.9231 19.1762H69.3079V28.188H66.2868V16.7291ZM73.2984 12.6821H74.4482C74.1776 14.3135 73.5013 15.1292 72.4191 15.1292C72.1486 15.1292 71.9381 15.1135 71.7878 15.0821C71.6526 15.035 71.2693 14.886 70.638 14.635C70.0218 14.3841 69.5859 14.2586 69.3304 14.2586C68.9246 14.2586 68.6315 14.588 68.4511 15.2468H67.3239C67.4441 14.4468 67.6921 13.8272 68.0679 13.388C68.4436 12.9488 68.9096 12.7292 69.4657 12.7292C69.7512 12.7292 69.9617 12.7527 70.0969 12.7997C70.2322 12.8311 70.5178 12.9566 70.9537 13.1762C71.4046 13.3801 71.7277 13.5135 71.9231 13.5762C72.1335 13.639 72.3064 13.6703 72.4417 13.6703C72.8475 13.6703 73.133 13.3409 73.2984 12.6821Z" fill="#0C2FF3"/>
<path d="M86.896 21.2233V21.035C86.896 20.3291 86.7307 19.8429 86.4 19.5762C86.0693 19.3095 85.4681 19.1762 84.5964 19.1762H79.5011V16.7291H84.5964C85.9641 16.7291 86.9185 16.8076 87.4596 16.9644C88.0007 17.1213 88.4667 17.4429 88.8574 17.9291C89.2633 18.4154 89.5413 18.9409 89.6916 19.5056C89.8419 20.0546 89.9171 20.7997 89.9171 21.7409V28.188H83.5593C82.3268 28.188 81.5077 28.1566 81.1019 28.0939C80.7111 28.0311 80.2151 27.7723 79.6139 27.3174C79.0127 26.8625 78.7121 26.0154 78.7121 24.7762C78.7121 23.9762 78.8924 23.2782 79.2531 22.6821C79.6139 22.086 80.0798 21.6939 80.6509 21.5056C81.2221 21.3174 82.0713 21.2233 83.1986 21.2233H86.896ZM86.896 23.6703H82.9055C82.154 23.6703 81.7782 24.0233 81.7782 24.7291C81.7782 25.0899 81.8985 25.3488 82.1389 25.5056C82.3945 25.6625 82.8153 25.7409 83.4015 25.7409H86.896V23.6703Z" fill="#0C2FF3"/>
<path d="M93.5182 16.7291V12.4939H96.5392V16.7291H99.3348V19.1762H96.5392V23.3409C96.5392 24.3291 96.6369 24.9801 96.8323 25.2939C97.0427 25.5919 97.4786 25.7409 98.1399 25.7409H99.3348V28.188H97.1479C95.8102 28.188 94.8709 27.8664 94.3298 27.2233C93.7887 26.5801 93.5182 25.4664 93.5182 23.8821V19.1762H91.6018V16.7291H93.5182Z" fill="#0C2FF3"/>
<path d="M108.979 21.2233V21.035C108.979 20.3291 108.814 19.8429 108.483 19.5762C108.152 19.3095 107.551 19.1762 106.679 19.1762H101.584V16.7291H106.679C108.047 16.7291 109.001 16.8076 109.543 16.9644C110.084 17.1213 110.55 17.4429 110.94 17.9291C111.346 18.4154 111.624 18.9409 111.775 19.5056C111.925 20.0546 112 20.7997 112 21.7409V28.188H105.642C104.41 28.188 103.591 28.1566 103.185 28.0939C102.794 28.0311 102.298 27.7723 101.697 27.3174C101.096 26.8625 100.795 26.0154 100.795 24.7762C100.795 23.9762 100.975 23.2782 101.336 22.6821C101.697 22.086 102.163 21.6939 102.734 21.5056C103.305 21.3174 104.154 21.2233 105.282 21.2233H108.979ZM108.979 23.6703H104.988C104.237 23.6703 103.861 24.0233 103.861 24.7291C103.861 25.0899 103.981 25.3488 104.222 25.5056C104.477 25.6625 104.898 25.7409 105.484 25.7409H108.979V23.6703Z" fill="#0C2FF3"/>
<path d="M27.5826 13.2069L30.3513 13.22C32.5945 13.2305 34.4047 15.1077 34.3944 17.4128L34.3273 32.4297L37.9328 32.4467L37.9999 17.4298C38.0194 13.0786 34.6024 9.53501 30.3678 9.51502L27.5991 9.50195L27.5826 13.2069Z" fill="#0C2FF3"/>
<path d="M12.6229 32.4953L12.6196 26.7069C12.6182 24.409 14.4452 22.546 16.6988 22.5473L31.1903 22.5557L31.1919 18.8649L16.7003 18.8565C12.4463 18.854 8.99747 22.3708 9 26.7086L9.00338 32.497L12.6229 32.4953Z" fill="#0C2FF3"/>
<path d="M28.1935 30.2099C29.7367 30.2099 30.9876 28.9239 30.9876 27.3376C30.9876 25.7514 29.7367 24.4654 28.1935 24.4654C26.6504 24.4654 25.3995 25.7514 25.3995 27.3376C25.3995 28.9239 26.6504 30.2099 28.1935 30.2099Z" fill="#0C2FF3"/>
</svg>
