<svg width="120" height="42" viewBox="0 0 120 42" fill="none" xmlns="http://www.w3.org/2000/svg">
<path d="M47 16.729H52.2756C53.3427 16.729 54.1243 16.7918 54.6203 16.9173C55.1313 17.0428 55.8302 17.4741 56.717 18.2114C57.6188 18.933 58.0697 20.4075 58.0697 22.6349C58.0697 24.3134 57.5963 25.6624 56.6494 26.682C55.7025 27.6859 54.3798 28.1879 52.6814 28.1879H50.0211V32.4938H47V16.729ZM50.0211 19.1761V25.7408H51.8698C53.9439 25.7408 54.981 24.6428 54.981 22.4467C54.981 20.2663 54.0191 19.1761 52.0952 19.1761H50.0211Z" fill="white"/>
<path d="M60.2981 16.7291H63.3192V28.188H60.2981V16.7291ZM61.6961 15.5527C60.924 15.5527 60.2981 14.8679 60.2981 14.0233C60.2981 13.1786 60.924 12.4939 61.6961 12.4939H61.9212C62.6933 12.4939 63.3192 13.1786 63.3192 14.0233C63.3192 14.8679 62.6933 15.5527 61.9212 15.5527H61.6961Z" fill="white"/>
<path d="M66.2869 16.7291H72.1036C73.6817 16.7291 74.809 17.0664 75.4854 17.7409C76.1617 18.4154 76.4999 19.5448 76.4999 21.1291V28.188H73.4788V20.7762C73.4788 20.2115 73.3586 19.8037 73.1181 19.5527C72.8776 19.3017 72.4793 19.1762 71.9232 19.1762H69.308V28.188H66.2869V16.7291ZM73.2985 12.6821H74.4483C74.1777 14.3135 73.5014 15.1292 72.4192 15.1292C72.1487 15.1292 71.9382 15.1135 71.7879 15.0821C71.6527 15.035 71.2694 14.886 70.6381 14.635C70.0219 14.3841 69.586 14.2586 69.3305 14.2586C68.9247 14.2586 68.6316 14.588 68.4512 15.2468H67.324C67.4442 14.4468 67.6922 13.8272 68.068 13.388C68.4437 12.9488 68.9097 12.7292 69.4658 12.7292C69.7513 12.7292 69.9618 12.7527 70.097 12.7997C70.2323 12.8311 70.5179 12.9566 70.9538 13.1762C71.4047 13.3801 71.7278 13.5135 71.9232 13.5762C72.1336 13.639 72.3065 13.6703 72.4418 13.6703C72.8476 13.6703 73.1331 13.3409 73.2985 12.6821Z" fill="white"/>
<path d="M86.8961 21.2232V21.0349C86.8961 20.329 86.7308 19.8428 86.4001 19.5761C86.0694 19.3094 85.4682 19.1761 84.5965 19.1761H79.5012V16.729H84.5965C85.9642 16.729 86.9186 16.8075 87.4597 16.9643C88.0008 17.1212 88.4668 17.4428 88.8575 17.929C89.2634 18.4153 89.5414 18.9408 89.6917 19.5055C89.842 20.0545 89.9172 20.7996 89.9172 21.7408V28.1879H83.5594C82.3269 28.1879 81.5078 28.1565 81.102 28.0938C80.7112 28.031 80.2152 27.7722 79.614 27.3173C79.0128 26.8624 78.7122 26.0153 78.7122 24.7761C78.7122 23.9761 78.8925 23.2781 79.2532 22.682C79.614 22.0859 80.0799 21.6938 80.651 21.5055C81.2222 21.3173 82.0714 21.2232 83.1987 21.2232H86.8961ZM86.8961 23.6702H82.9056C82.1541 23.6702 81.7783 24.0232 81.7783 24.729C81.7783 25.0898 81.8986 25.3487 82.139 25.5055C82.3946 25.6624 82.8154 25.7408 83.4016 25.7408H86.8961V23.6702Z" fill="white"/>
<path d="M93.5182 16.7291V12.4939H96.5392V16.7291H99.3348V19.1762H96.5392V23.3409C96.5392 24.3291 96.6369 24.9801 96.8323 25.2939C97.0427 25.5919 97.4786 25.7409 98.1399 25.7409H99.3348V28.188H97.1479C95.8102 28.188 94.8709 27.8664 94.3298 27.2233C93.7887 26.5801 93.5182 25.4664 93.5182 23.8821V19.1762H91.6018V16.7291H93.5182Z" fill="white"/>
<path d="M108.979 21.2232V21.0349C108.979 20.329 108.814 19.8428 108.483 19.5761C108.152 19.3094 107.551 19.1761 106.679 19.1761H101.584V16.729H106.679C108.047 16.729 109.001 16.8075 109.543 16.9643C110.084 17.1212 110.55 17.4428 110.94 17.929C111.346 18.4153 111.624 18.9408 111.775 19.5055C111.925 20.0545 112 20.7996 112 21.7408V28.1879H105.642C104.41 28.1879 103.591 28.1565 103.185 28.0938C102.794 28.031 102.298 27.7722 101.697 27.3173C101.096 26.8624 100.795 26.0153 100.795 24.7761C100.795 23.9761 100.975 23.2781 101.336 22.682C101.697 22.0859 102.163 21.6938 102.734 21.5055C103.305 21.3173 104.154 21.2232 105.282 21.2232H108.979ZM108.979 23.6702H104.988C104.237 23.6702 103.861 24.0232 103.861 24.729C103.861 25.0898 103.981 25.3487 104.222 25.5055C104.477 25.6624 104.898 25.7408 105.484 25.7408H108.979V23.6702Z" fill="white"/>
<path d="M27.5825 13.2069L30.3512 13.22C32.5944 13.2305 34.4046 15.1077 34.3943 17.4128L34.3272 32.4297L37.9327 32.4467L37.9998 17.4298C38.0193 13.0786 34.6023 9.53501 30.3677 9.51502L27.599 9.50195L27.5825 13.2069Z" fill="white"/>
<path d="M12.6229 32.4952L12.6196 26.7068C12.6182 24.4089 14.4452 22.5459 16.6988 22.5472L31.1903 22.5556L31.1919 18.8648L16.7003 18.8564C12.4463 18.8539 8.99747 22.3707 9 26.7085L9.00338 32.4969L12.6229 32.4952Z" fill="white"/>
<path d="M28.1934 30.2098C29.7366 30.2098 30.9875 28.9238 30.9875 27.3375C30.9875 25.7513 29.7366 24.4653 28.1934 24.4653C26.6503 24.4653 25.3994 25.7513 25.3994 27.3375C25.3994 28.9238 26.6503 30.2098 28.1934 30.2098Z" fill="white"/>
</svg>
