<svg width="120" height="42" viewBox="0 0 120 42" fill="none" xmlns="http://www.w3.org/2000/svg">
<path d="M47 16.7311H52.2756C53.3427 16.7311 54.1243 16.7938 54.6203 16.9193C55.1313 17.0448 55.8302 17.4762 56.717 18.2135C57.6188 18.935 58.0697 20.4095 58.0697 22.637C58.0697 24.3154 57.5963 25.6644 56.6494 26.684C55.7025 27.688 54.3798 28.1899 52.6814 28.1899H50.0211V32.4958H47V16.7311ZM50.0211 19.1782V25.7429H51.8698C53.9439 25.7429 54.981 24.6448 54.981 22.4487C54.981 20.2684 54.0191 19.1782 52.0952 19.1782H50.0211Z" fill="#0C2FF3"/>
<path d="M60.2982 16.7311H63.3193V28.1899H60.2982V16.7311ZM61.6962 15.5546C60.9241 15.5546 60.2982 14.8699 60.2982 14.0252C60.2982 13.1805 60.9241 12.4958 61.6962 12.4958H61.9213C62.6934 12.4958 63.3193 13.1805 63.3193 14.0252C63.3193 14.8699 62.6934 15.5546 61.9213 15.5546H61.6962Z" fill="#0C2FF3"/>
<path d="M66.2868 16.7311H72.1035C73.6816 16.7311 74.8089 17.0684 75.4853 17.7429C76.1616 18.4174 76.4998 19.5468 76.4998 21.1311V28.1899H73.4787V20.7782C73.4787 20.2135 73.3585 19.8056 73.118 19.5546C72.8775 19.3037 72.4792 19.1782 71.9231 19.1782H69.3079V28.1899H66.2868V16.7311ZM73.2984 12.684H74.4482C74.1776 14.3154 73.5013 15.1311 72.4191 15.1311C72.1486 15.1311 71.9381 15.1154 71.7878 15.084C71.6526 15.037 71.2693 14.888 70.638 14.637C70.0218 14.386 69.5859 14.2605 69.3304 14.2605C68.9246 14.2605 68.6315 14.5899 68.4511 15.2487H67.3239C67.4441 14.4488 67.6921 13.8291 68.0679 13.3899C68.4436 12.9507 68.9096 12.7311 69.4657 12.7311C69.7512 12.7311 69.9617 12.7546 70.0969 12.8017C70.2322 12.8331 70.5178 12.9586 70.9537 13.1782C71.4046 13.3821 71.7277 13.5154 71.9231 13.5782C72.1335 13.6409 72.3064 13.6723 72.4417 13.6723C72.8475 13.6723 73.133 13.3429 73.2984 12.684Z" fill="#0C2FF3"/>
<path d="M86.896 21.2252V21.037C86.896 20.3311 86.7307 19.8448 86.4 19.5782C86.0693 19.3115 85.4681 19.1782 84.5964 19.1782H79.5011V16.7311H84.5964C85.9641 16.7311 86.9185 16.8095 87.4596 16.9664C88.0007 17.1233 88.4667 17.4448 88.8574 17.9311C89.2633 18.4174 89.5413 18.9429 89.6916 19.5076C89.8419 20.0566 89.9171 20.8017 89.9171 21.7429V28.1899H83.5593C82.3268 28.1899 81.5077 28.1586 81.1019 28.0958C80.7111 28.0331 80.2151 27.7742 79.6139 27.3193C79.0127 26.8644 78.7121 26.0174 78.7121 24.7782C78.7121 23.9782 78.8924 23.2801 79.2531 22.684C79.6139 22.088 80.0798 21.6958 80.6509 21.5076C81.2221 21.3193 82.0713 21.2252 83.1986 21.2252H86.896ZM86.896 23.6723H82.9055C82.154 23.6723 81.7782 24.0252 81.7782 24.7311C81.7782 25.0919 81.8985 25.3507 82.1389 25.5076C82.3945 25.6644 82.8153 25.7429 83.4015 25.7429H86.896V23.6723Z" fill="#0C2FF3"/>
<path d="M93.5182 16.7311V12.4958H96.5392V16.7311H99.3348V19.1782H96.5392V23.3429C96.5392 24.3311 96.6369 24.9821 96.8323 25.2958C97.0427 25.5938 97.4786 25.7429 98.1399 25.7429H99.3348V28.1899H97.1479C95.8102 28.1899 94.8709 27.8684 94.3298 27.2252C93.7887 26.5821 93.5182 25.4684 93.5182 23.884V19.1782H91.6018V16.7311H93.5182Z" fill="#0C2FF3"/>
<path d="M108.979 21.2252V21.037C108.979 20.3311 108.814 19.8448 108.483 19.5782C108.152 19.3115 107.551 19.1782 106.679 19.1782H101.584V16.7311H106.679C108.047 16.7311 109.001 16.8095 109.543 16.9664C110.084 17.1233 110.55 17.4448 110.94 17.9311C111.346 18.4174 111.624 18.9429 111.775 19.5076C111.925 20.0566 112 20.8017 112 21.7429V28.1899H105.642C104.41 28.1899 103.591 28.1586 103.185 28.0958C102.794 28.0331 102.298 27.7742 101.697 27.3193C101.096 26.8644 100.795 26.0174 100.795 24.7782C100.795 23.9782 100.975 23.2801 101.336 22.684C101.697 22.088 102.163 21.6958 102.734 21.5076C103.305 21.3193 104.154 21.2252 105.282 21.2252H108.979ZM108.979 23.6723H104.988C104.237 23.6723 103.861 24.0252 103.861 24.7311C103.861 25.0919 103.981 25.3507 104.222 25.5076C104.477 25.6644 104.898 25.7429 105.484 25.7429H108.979V23.6723Z" fill="#0C2FF3"/>
<path d="M27.5826 13.2088L30.3513 13.2219C32.5945 13.2325 34.4047 15.1097 34.3944 17.4147L34.3273 32.4316L37.9328 32.4486L37.9999 17.4318C38.0194 13.0805 34.6024 9.53696 30.3678 9.51697L27.5991 9.50391L27.5826 13.2088Z" fill="#0C2FF3"/>
<path d="M12.6229 32.4973L12.6196 26.7089C12.6182 24.4109 14.4452 22.5479 16.6988 22.5492L31.1903 22.5576L31.1919 18.8668L16.7003 18.8584C12.4463 18.856 8.99747 22.3728 9 26.7105L9.00338 32.499L12.6229 32.4973Z" fill="#0C2FF3"/>
<path d="M28.1935 30.2118C29.7367 30.2118 30.9876 28.9259 30.9876 27.3396C30.9876 25.7533 29.7367 24.4674 28.1935 24.4674C26.6504 24.4674 25.3995 25.7533 25.3995 27.3396C25.3995 28.9259 26.6504 30.2118 28.1935 30.2118Z" fill="#0C2FF3"/>
</svg>
