<svg width="121" height="34" viewBox="0 0 121 34" fill="none" xmlns="http://www.w3.org/2000/svg">
<path d="M0.622586 32.5939C0.409597 31.7992 0.231386 30.9321 0.226563 30.6672C0.221747 30.4023 21.4598 30.1855 47.4222 30.1855C75.36 30.1855 120.432 30.4241 120.432 30.7701C120.432 31.6457 87.5674 31.9878 47.101 33.0728C-1.23672 34.3689 1.10473 34.393 0.622586 32.5939Z" fill="#FFAD50"/>
<path d="M8.56587 23.8407C8.56587 19.571 8.50341 19.397 6.7026 18.6511C2.27645 16.8178 0.216797 12.533 0.216797 5.15852V0H2.71984H5.22288L5.44935 5.51462C5.65934 10.6278 5.80701 11.1421 7.47778 12.5792C9.96985 14.7228 12.6842 14.6053 15.0376 12.2519C16.8026 10.4869 16.9149 10.0643 16.9149 5.18729V0H19.4839H22.0528V5.4172C22.0528 8.39666 21.7454 11.648 21.3697 12.6424C20.4772 15.0047 17.8764 17.6946 15.555 18.6561C13.7686 19.3961 13.7038 19.5776 13.7038 23.8407V28.2584H11.1348H8.56587V23.8407ZM25.9204 18.7854C25.9356 8.52354 26.6215 5.71843 29.8355 2.77228C34.7285 -1.71289 42.7276 -0.416047 46.1458 5.41656C47.6624 8.00446 47.7423 8.64422 47.7423 18.1996V28.2584H45.1733H42.6044V25.3683V22.4783H36.8243H31.0441V25.3683V28.2584H28.4752H25.9062L25.9204 18.7854ZM42.6044 13.4447C42.6044 8.87859 41.9707 7.43411 39.3797 6.09426C35.4798 4.07752 31.7012 6.87489 31.1939 12.1544C30.7077 17.2145 30.8516 17.3404 37.1252 17.3404H42.6044V13.4447ZM58.0181 16.6981V5.13789H53.8435H49.669V2.56894V0H60.9081H72.1473V2.5396V5.0792L67.8122 5.2691L63.4771 5.459L63.3017 16.8587L63.1263 28.2584H60.5722H58.0181L58.0181 16.6981ZM81.1386 16.6981V5.13789H76.964H72.7895V2.56894V0H84.0286H95.2678V2.5396V5.0792L90.9327 5.2691L86.5976 5.459L86.4222 16.8587L86.2468 28.2584H83.6927H81.1386L81.1386 16.6981Z" fill="#6D28D9"/>
<path d="M81.1386 5.13789V16.6981L81.1386 28.2584H83.6927H86.2468L86.4222 16.8587L86.5976 5.459L90.9327 5.2691L95.2678 5.0792V2.5396V0H84.0286H72.7895V2.56894V5.13789H76.964H81.1386Z" fill="#6D28D9"/>
<path d="M105.654 5.13789V16.6981L105.654 28.2584H108.208H119.783L119.608 22.5585L110.937 23.0101V16.8587L119.783 16.3436V11.1588L111.113 11.3975V5.459L115.448 5.2691L119.783 5.0792V2.5396V0H108.544H105.477V2.56894V5.13789H105.78H105.654Z" fill="#6D28D9"/>
<path d="M97.4824 16.6981V5.13789H102.77L97.7353 3.8476V1.27866V0H100.372H103.01V1.24932V3.78892L98.6746 5.2691L102.941 5.459L102.766 16.8587L102.591 28.2584H100.037H97.4824L97.4824 16.6981Z" fill="#6D28D9"/>
</svg>
